<svg width="573" height="490" viewBox="0 0 573 490" fill="none" xmlns="http://www.w3.org/2000/svg">
<g clip-path="url(#clip0)" filter="url(#filter0_d)">
<path d="M275.331 300.015H135.624C135.193 300.014 134.781 299.843 134.476 299.538C134.172 299.233 134.001 298.819 134 298.388V168.408C134.001 167.977 134.172 167.564 134.476 167.259C134.781 166.954 135.193 166.782 135.624 166.782H275.331C275.761 166.782 276.174 166.954 276.479 167.259C276.783 167.564 276.954 167.977 276.955 168.408V298.388C276.954 298.819 276.783 299.232 276.479 299.537C276.174 299.842 275.762 300.014 275.331 300.014V300.015Z" fill="#F1F1F1"/>
<path d="M297.354 319.452H157.647C157.216 319.451 156.803 319.28 156.499 318.975C156.195 318.67 156.023 318.257 156.023 317.825V187.846C156.023 187.414 156.195 187.001 156.499 186.696C156.803 186.391 157.216 186.219 157.647 186.219H297.354C297.784 186.219 298.197 186.391 298.501 186.696C298.806 187.001 298.977 187.414 298.978 187.846V317.825C298.977 318.256 298.806 318.67 298.501 318.975C298.197 319.28 297.784 319.451 297.354 319.452V319.452Z" fill="white"/>
<path d="M297.354 319.452H157.647C157.216 319.451 156.803 319.28 156.499 318.975C156.195 318.67 156.023 318.257 156.023 317.825V187.846C156.023 187.414 156.195 187.001 156.499 186.696C156.803 186.391 157.216 186.219 157.647 186.219H297.354C297.784 186.219 298.197 186.391 298.501 186.696C298.806 187.001 298.977 187.414 298.978 187.846V317.825C298.977 318.256 298.806 318.67 298.501 318.975C298.197 319.28 297.784 319.451 297.354 319.452V319.452ZM157.647 186.868C157.389 186.869 157.141 186.972 156.959 187.154C156.776 187.337 156.674 187.585 156.673 187.843V317.825C156.674 318.083 156.776 318.331 156.959 318.514C157.141 318.697 157.389 318.8 157.647 318.8H297.354C297.612 318.8 297.859 318.697 298.041 318.514C298.224 318.331 298.327 318.083 298.327 317.825V187.846C298.327 187.587 298.224 187.339 298.041 187.157C297.859 186.974 297.612 186.871 297.354 186.87L157.647 186.868Z" fill="#E6E6E6"/>
<path d="M271.345 244.488H183.655C183.225 244.487 182.812 244.316 182.507 244.011C182.203 243.706 182.032 243.292 182.031 242.861V204.308C182.032 203.876 182.203 203.463 182.507 203.158C182.812 202.853 183.225 202.681 183.655 202.681H271.345C271.776 202.681 272.188 202.853 272.493 203.158C272.797 203.463 272.968 203.876 272.969 204.308V242.861C272.968 243.292 272.797 243.706 272.493 244.011C272.188 244.316 271.776 244.487 271.345 244.488Z" fill="#CC4EBA"/>
<path d="M197.255 219.166C196.963 219.167 196.683 219.284 196.476 219.491C196.27 219.698 196.154 219.978 196.154 220.271C196.154 220.563 196.27 220.844 196.476 221.051C196.683 221.258 196.963 221.375 197.255 221.375H257.746C258.038 221.375 258.318 221.258 258.524 221.051C258.73 220.844 258.846 220.563 258.846 220.271C258.846 219.978 258.73 219.698 258.524 219.491C258.318 219.284 258.038 219.167 257.746 219.166H197.255Z" fill="white"/>
<path d="M197.255 225.794C196.963 225.794 196.683 225.911 196.476 226.118C196.27 226.325 196.154 226.605 196.154 226.898C196.154 227.19 196.27 227.471 196.476 227.678C196.683 227.885 196.963 228.002 197.255 228.002H228.137C228.429 228.002 228.708 227.885 228.915 227.678C229.121 227.471 229.237 227.19 229.237 226.898C229.237 226.605 229.121 226.325 228.915 226.118C228.708 225.911 228.429 225.794 228.137 225.794H197.255Z" fill="white"/>
<path d="M170.789 258.698C170.497 258.699 170.218 258.815 170.011 259.022C169.805 259.229 169.689 259.51 169.689 259.802C169.689 260.095 169.805 260.376 170.011 260.583C170.218 260.79 170.497 260.906 170.789 260.907H284.211C284.503 260.906 284.783 260.79 284.989 260.583C285.195 260.376 285.311 260.095 285.311 259.802C285.311 259.51 285.195 259.229 284.989 259.022C284.783 258.815 284.503 258.699 284.211 258.698H170.789Z" fill="#E6E6E6"/>
<path d="M170.789 265.325C170.497 265.326 170.218 265.442 170.011 265.649C169.805 265.857 169.689 266.137 169.689 266.43C169.689 266.722 169.805 267.003 170.011 267.21C170.218 267.417 170.497 267.534 170.789 267.534H254.602C254.894 267.534 255.173 267.417 255.38 267.21C255.586 267.003 255.702 266.722 255.702 266.43C255.702 266.137 255.586 265.857 255.38 265.649C255.173 265.442 254.894 265.326 254.602 265.325H170.789Z" fill="#E6E6E6"/>
<path d="M170.789 271.802C170.497 271.803 170.218 271.92 170.011 272.127C169.805 272.334 169.689 272.614 169.689 272.907C169.689 273.199 169.805 273.48 170.011 273.687C170.218 273.894 170.497 274.011 170.789 274.011H284.211C284.503 274.011 284.783 273.894 284.989 273.687C285.195 273.48 285.311 273.199 285.311 272.907C285.311 272.614 285.195 272.334 284.989 272.127C284.783 271.92 284.503 271.803 284.211 271.802H170.789Z" fill="#E6E6E6"/>
<path d="M170.789 278.43C170.497 278.43 170.218 278.547 170.011 278.754C169.805 278.961 169.689 279.242 169.689 279.534C169.689 279.827 169.805 280.107 170.011 280.314C170.218 280.521 170.497 280.638 170.789 280.638H254.602C254.894 280.638 255.173 280.521 255.38 280.314C255.586 280.107 255.702 279.827 255.702 279.534C255.702 279.242 255.586 278.961 255.38 278.754C255.173 278.547 254.894 278.43 254.602 278.43H170.789Z" fill="#E6E6E6"/>
<path d="M283.509 304.214H250.271C249.84 304.214 249.427 304.042 249.123 303.737C248.818 303.432 248.647 303.019 248.647 302.587V297.252C248.647 296.821 248.818 296.407 249.123 296.102C249.427 295.797 249.84 295.626 250.271 295.625H283.509C283.94 295.626 284.353 295.797 284.657 296.102C284.962 296.407 285.133 296.821 285.133 297.252V302.587C285.133 303.019 284.962 303.432 284.657 303.737C284.353 304.042 283.94 304.214 283.509 304.214Z" fill="#CC4EBA"/>
<path d="M354.953 188.088L298.794 216.867L299.165 217.593L355.324 188.814L354.953 188.088Z" fill="#E5E5E5"/>
<path d="M299.163 292.359L298.792 293.085L354.955 321.856L355.326 321.129L299.163 292.359Z" fill="#E5E5E5"/>
<path d="M439 177.849C438.998 185.746 436.82 193.488 432.706 200.224C428.592 206.959 422.701 212.426 415.684 216.022C415.321 216.21 414.954 216.393 414.588 216.565C414.372 216.671 414.156 216.769 413.94 216.867C413.411 217.107 412.873 217.34 412.331 217.556C410.404 218.346 408.42 218.988 406.396 219.478C406.111 219.552 405.818 219.617 405.529 219.682C404.8 219.846 404.065 219.987 403.325 220.107C399.286 220.784 395.171 220.881 391.105 220.392C390.262 220.295 389.425 220.169 388.595 220.017C388.2 219.944 387.805 219.866 387.414 219.784C387.361 219.772 387.308 219.76 387.255 219.752C385.852 219.456 384.465 219.085 383.1 218.642C382.367 218.405 381.638 218.152 380.925 217.875C380.555 217.732 380.188 217.585 379.825 217.434C379.646 217.36 379.467 217.283 379.292 217.205C372.203 214.144 366.073 209.217 361.552 202.948C357.031 196.679 354.288 189.301 353.614 181.596C352.94 173.892 354.359 166.148 357.722 159.186C361.085 152.225 366.265 146.304 372.715 142.054C379.164 137.803 386.641 135.379 394.353 135.041C402.066 134.703 409.726 136.462 416.522 140.131C423.317 143.801 428.994 149.245 432.952 155.885C436.909 162.526 438.999 170.115 439 177.849Z" fill="#F1F1F1"/>
<path d="M439 314.151C438.99 321.055 437.32 327.856 434.132 333.977C430.943 340.098 426.33 345.359 420.682 349.316C420.576 349.389 420.47 349.463 420.364 349.532C419.745 349.961 419.113 350.373 418.466 350.76C418.055 351.013 417.635 351.258 417.215 351.499C416.71 351.785 416.201 352.058 415.684 352.323C415.566 352.385 415.447 352.446 415.325 352.503C414.893 352.723 414.458 352.936 414.014 353.135C413.989 353.148 413.965 353.156 413.94 353.168C413.794 353.233 413.643 353.303 413.488 353.368C412.531 353.792 411.553 354.184 410.555 354.535C410.486 354.564 410.413 354.588 410.339 354.613C408.054 355.417 405.703 356.018 403.313 356.408C402.861 356.49 402.404 356.555 401.948 356.616C401.875 356.629 401.797 356.641 401.724 356.649C401.101 356.731 400.474 356.796 399.842 356.849C399.769 356.857 399.695 356.861 399.622 356.865C399.15 356.906 398.673 356.935 398.192 356.955C397.541 356.984 396.889 357 396.229 357C395.304 357 394.385 356.971 393.471 356.914C392.677 356.861 391.887 356.792 391.105 356.694C390.628 356.637 390.152 356.572 389.683 356.498C389.166 356.421 388.648 356.331 388.139 356.233C387.887 356.184 387.634 356.131 387.382 356.078C387.341 356.07 387.296 356.061 387.255 356.053C386.848 355.968 386.445 355.878 386.046 355.776C384.463 355.393 382.904 354.916 381.377 354.348C380.856 354.152 380.339 353.948 379.825 353.735C379.667 353.67 379.508 353.601 379.353 353.531C379.072 353.413 378.795 353.286 378.518 353.16C378.31 353.066 378.102 352.968 377.895 352.87C377.455 352.666 377.023 352.45 376.591 352.225C376.245 352.05 375.899 351.862 375.56 351.675C375.552 351.67 375.548 351.666 375.54 351.662C368.938 348.008 363.418 342.67 359.54 336.189C355.662 329.708 353.563 322.316 353.456 314.76C353.349 307.205 355.239 299.755 358.933 293.167C362.626 286.579 367.994 281.087 374.49 277.247C380.986 273.407 388.38 271.356 395.922 271.303C403.464 271.249 410.886 273.194 417.436 276.941C423.986 280.688 429.43 286.103 433.217 292.638C437.005 299.173 438.999 306.595 439 314.151Z" fill="#F1F1F1"/>
<path d="M395.968 170.296C392.893 170.299 389.944 171.525 387.769 173.704C385.594 175.883 384.371 178.837 384.367 181.918V190.59C384.368 191.004 384.533 191.4 384.825 191.693C385.118 191.985 385.514 192.149 385.927 192.149H406.009C406.422 192.149 406.819 191.985 407.111 191.693C407.404 191.4 407.569 191.004 407.569 190.59V181.918C407.565 178.837 406.342 175.883 404.167 173.704C401.992 171.525 399.044 170.3 395.968 170.296Z" fill="#2F2E41"/>
<path d="M390.042 206.783L388.929 201.763C388.773 201.05 388.409 200.399 387.882 199.894C387.415 199.487 386.867 199.182 386.274 199C386.204 198.984 386.135 198.968 386.062 198.956C386.031 198.947 386 198.94 385.968 198.935C385.469 198.848 384.957 198.866 384.465 198.986C383.973 199.107 383.512 199.328 383.109 199.637C382.707 199.945 382.372 200.333 382.127 200.777C381.881 201.221 381.73 201.711 381.683 202.216L380.738 208.138L379.292 217.205C379.467 217.283 379.646 217.36 379.825 217.434C380.188 217.585 380.555 217.732 380.925 217.875C381.638 218.152 382.367 218.405 383.1 218.642C384.465 219.085 385.852 219.456 387.255 219.752C387.308 219.76 387.361 219.772 387.414 219.784C387.805 219.866 388.2 219.943 388.595 220.017L390.571 209.174L390.042 206.783Z" fill="#2F2E41"/>
<path d="M393.106 192.019C397.804 192.019 401.611 188.204 401.611 183.498C401.611 178.793 397.804 174.978 393.106 174.978C388.409 174.978 384.602 178.793 384.602 183.498C384.602 188.204 388.409 192.019 393.106 192.019Z" fill="#FFB7B7"/>
<path d="M402.298 212.014L400.482 197.666L400.099 194.626H400.095L399.924 194.622C399.345 194.601 398.783 194.597 398.229 194.618C394.829 194.632 391.495 195.556 388.571 197.295C387.806 197.762 387.076 198.286 386.388 198.862L386.355 198.894L386.274 199L383.385 202.722L383.382 202.796L383.1 218.642C384.465 219.085 385.852 219.456 387.255 219.752C387.308 219.76 387.361 219.772 387.414 219.784C387.805 219.866 388.2 219.944 388.595 220.017C389.426 220.168 390.263 220.293 391.105 220.392C395.171 220.881 399.286 220.784 403.325 220.107L402.298 212.014Z" fill="#CC4EBA"/>
<path d="M405.272 197.76C403.934 196.179 402.118 195.078 400.099 194.626H400.095C399.556 194.504 399.008 194.432 398.457 194.409L398.315 194.405L398.229 194.618L391.386 211.145L390.282 206.73L388.571 197.295L388.559 197.225L388.302 197.376C387.509 197.834 386.759 198.362 386.062 198.956C383.286 201.304 381.434 204.564 380.836 208.154C380.661 209.218 380.597 210.297 380.644 211.374L380.925 217.875C381.638 218.152 382.367 218.405 383.1 218.642C384.465 219.085 385.852 219.456 387.255 219.752C387.308 219.76 387.361 219.772 387.414 219.784C387.805 219.866 388.2 219.944 388.595 220.017C389.426 220.168 390.263 220.293 391.105 220.392C395.171 220.881 399.286 220.784 403.325 220.107C404.066 219.988 404.801 219.847 405.529 219.682C405.818 219.617 406.111 219.552 406.396 219.478L405.781 217.662L407.411 205.056C407.577 203.758 407.473 202.439 407.105 201.183C406.737 199.928 406.113 198.762 405.272 197.76Z" fill="#2F2E41"/>
<path d="M407.293 198.111C407.001 197.213 406.376 196.461 405.545 196.014C404.715 195.566 403.745 195.456 402.836 195.707C402.689 195.745 402.545 195.793 402.404 195.85C401.729 196.126 401.151 196.598 400.744 197.205C400.338 197.812 400.122 198.527 400.123 199.258L400.14 206.885L402.298 212.014L405.529 219.682C405.818 219.617 406.111 219.552 406.396 219.478C408.42 218.988 410.404 218.346 412.331 217.556C412.873 217.34 413.411 217.107 413.94 216.867C414.156 216.769 414.372 216.671 414.588 216.565L407.293 198.111Z" fill="#2F2E41"/>
<path d="M392.534 173.417H390.799C388.366 173.418 386.032 174.387 384.312 176.112C382.592 177.836 381.626 180.174 381.626 182.612V182.783H393.907L394.033 181.016L394.661 182.783H396.551L396.803 179.282L398.05 182.783H401.708V182.612C401.706 180.175 400.738 177.838 399.019 176.114C397.299 174.391 394.967 173.421 392.534 173.417Z" fill="#2F2E41"/>
<path d="M388.807 330.017C387.375 329.914 385.936 330.1 384.576 330.562C383.215 331.024 381.961 331.754 380.886 332.708C379.812 333.663 378.938 334.823 378.318 336.121C377.697 337.418 377.341 338.827 377.271 340.264L376.591 352.225C377.023 352.45 377.455 352.666 377.894 352.87C378.102 352.968 378.31 353.066 378.518 353.16C378.795 353.286 379.072 353.413 379.353 353.531C379.508 353.601 379.666 353.67 379.825 353.735C380.339 353.947 380.856 354.152 381.377 354.347C382.904 354.916 384.463 355.393 386.046 355.776C386.445 355.878 386.848 355.968 387.255 356.053C387.296 356.061 387.341 356.07 387.382 356.078C387.634 356.131 387.887 356.184 388.139 356.233L389.003 330.029L388.807 330.017Z" fill="#2F2E41"/>
<path d="M399.842 356.849C400.474 356.796 401.101 356.731 401.724 356.649C401.797 356.641 401.875 356.629 401.948 356.616C402.404 356.555 402.861 356.49 403.313 356.408C403.349 355.302 403.337 354.507 403.337 354.409L405.362 333.274L401.142 330.809L400.319 330.327L387.561 329.915L387.455 330.005L381.328 335.326L379.353 353.531C379.508 353.601 379.666 353.67 379.825 353.735C380.339 353.948 380.856 354.152 381.377 354.347C382.904 354.916 384.462 355.393 386.045 355.776C386.445 355.878 386.848 355.968 387.255 356.053C387.296 356.061 387.341 356.07 387.382 356.078C387.634 356.131 387.887 356.184 388.139 356.233C388.648 356.331 389.166 356.421 389.683 356.498C390.151 356.572 390.628 356.637 391.105 356.694C391.887 356.792 392.677 356.861 393.471 356.914C394.384 356.971 395.303 357 396.229 357C396.889 357 397.541 356.984 398.192 356.955C398.673 356.935 399.15 356.906 399.622 356.865L399.842 356.849Z" fill="#2F2E41"/>
<path d="M408.376 335.094L401.15 330.67L401.142 330.809L399.842 356.849C400.474 356.796 401.101 356.731 401.724 356.649C401.797 356.641 401.875 356.629 401.948 356.616C402.404 356.555 402.861 356.49 403.313 356.408C405.703 356.018 408.054 355.417 410.339 354.613C410.413 354.588 410.486 354.564 410.555 354.535L411.068 339.934C411.104 338.958 410.872 337.99 410.397 337.137C409.923 336.284 409.223 335.577 408.376 335.094Z" fill="#2F2E41"/>
<path d="M392.515 327.097C397.466 327.097 401.48 323.076 401.48 318.116C401.48 313.155 397.466 309.134 392.515 309.134C387.564 309.134 383.55 313.155 383.55 318.116C383.55 323.076 387.564 327.097 392.515 327.097Z" fill="#9F616A"/>
<path d="M389.274 304.854C398.302 302.246 400.865 309.743 400.865 309.743C405.217 312.635 402.492 316.262 402.492 316.262C403.59 316.506 401.395 322.944 400.663 322.781C400.272 322.694 399.267 323.895 398.415 325.035C398.123 325.034 397.832 325.062 397.545 325.118L399.198 318.992C399.198 318.992 393.626 318.137 391.918 315.448C390.283 312.875 384.903 312.063 383.372 313.781C383.281 313.287 383.096 312.815 382.826 312.392C382.617 312.071 382.343 311.796 382.023 311.586C383.377 305.822 389.274 304.854 389.274 304.854Z" fill="#2F2E41"/>
<path opacity="0.2" d="M399.622 356.865C399.15 356.906 398.673 356.935 398.192 356.955L399.447 350.05V350.528L399.622 356.865Z" fill="black"/>
</g>
<defs>
<filter id="filter0_d" x="0" y="0" width="573" height="490" filterUnits="userSpaceOnUse" color-interpolation-filters="sRGB">
<feFlood flood-opacity="0" result="BackgroundImageFix"/>
<feColorMatrix in="SourceAlpha" type="matrix" values="0 0 0 0 0 0 0 0 0 0 0 0 0 0 0 0 0 0 127 0"/>
<feOffset dy="-1"/>
<feGaussianBlur stdDeviation="67"/>
<feColorMatrix type="matrix" values="0 0 0 0 0.8 0 0 0 0 0.305882 0 0 0 0 0.729412 0 0 0 0.5 0"/>
<feBlend mode="normal" in2="BackgroundImageFix" result="effect1_dropShadow"/>
<feBlend mode="normal" in="SourceGraphic" in2="effect1_dropShadow" result="shape"/>
</filter>
<clipPath id="clip0">
<rect width="305" height="222" fill="white" transform="translate(134 135)"/>
</clipPath>
</defs>
</svg>
